<svg aria-hidden="true" style="position: absolute; width: 0; height: 0; overflow: hidden;" version="1.1" xmlns="http://www.w3.org/2000/svg" xmlns:xlink="http://www.w3.org/1999/xlink">
<defs>


<symbol id="icon_code" xmlns="http://www.w3.org/2000/svg"  viewBox="0 0 24 24" fill="none" stroke="currentColor" stroke-width="2" stroke-linecap="round" stroke-linejoin="round" class="feather feather-code"><polyline points="16 18 22 12 16 6"></polyline><polyline points="8 6 2 12 8 18"></polyline></symbol>

<symbol id="icon_design" xmlns="http://www.w3.org/2000/svg" viewBox="0 0 24 24" fill="none" stroke="currentColor" stroke-width="2" stroke-linecap="round" stroke-linejoin="round" class="feather feather-pen-tool"><path d="M12 19l7-7 3 3-7 7-3-3z"></path><path d="M18 13l-1.5-7.5L2 2l3.5 14.5L13 18l5-5z"></path><path d="M2 2l7.586 7.586"></path><circle cx="11" cy="11" r="2"></circle></symbol>


<symbol id="icon_close"  viewBox="0 0 24 24"  stroke="currentColor" stroke-width="2" stroke-linecap="round" stroke-linejoin="round" class="feather feather-x"><line x1="18" y1="6" x2="6" y2="18"></line><line x1="6" y1="6" x2="18" y2="18"></line></symbol>

<symbol id="icon_hamburger" class="bi" fill="currentColor" viewBox="0 0 16 16">
  <path fill-rule="evenodd" d="M2.5 11.5A.5.5 0 0 1 3 11h10a.5.5 0 0 1 0 1H3a.5.5 0 0 1-.5-.5zm0-4A.5.5 0 0 1 3 7h10a.5.5 0 0 1 0 1H3a.5.5 0 0 1-.5-.5zm0-4A.5.5 0 0 1 3 3h10a.5.5 0 0 1 0 1H3a.5.5 0 0 1-.5-.5z"></path>
</symbol>


<symbol id="icon_ellipsis" xmlns="http://www.w3.org/2000/svg" width="24" height="24" viewBox="0 0 24 24" fill="none" stroke="currentColor" stroke-width="2" stroke-linecap="round" stroke-linejoin="round" class="feather feather-more-horizontal"><circle cx="12" cy="12" r="1"></circle><circle cx="19" cy="12" r="1"></circle><circle cx="5" cy="12" r="1"></circle></symbol>


<symbol id="icon_facebook"  viewBox="0 0 5 10"  xmlns="http://www.w3.org/2000/svg">
<path fill-rule="evenodd" clip-rule="evenodd" d="M1.10526 5.03973V9.87469C1.10526 9.94499 1.16447 10 1.24013 10H3.17105C3.24671 10 3.30592 9.94499 3.30592 9.87469V4.96027H4.70724C4.77632 4.96027 4.83553 4.91137 4.84211 4.84413L4.97698 3.36491C4.98356 3.29156 4.92106 3.22738 4.84211 3.22738H3.30592V2.17604C3.30592 1.92848 3.51974 1.72983 3.78619 1.72983H4.86514C4.9408 1.72983 5 1.67482 5 1.60452V0.125302C5 0.0550087 4.9408 0 4.86514 0H3.03947C1.97039 0 1.10198 0.806846 1.10198 1.80012V3.22738H0.13487C0.0592118 3.22738 0 3.2824 0 3.35269V4.83191C0 4.9022 0.0592118 4.95721 0.13487 4.95721H1.10198V5.03667L1.10526 5.03973Z"/>
</symbol>


<symbol id="icon_github"  viewBox="0 0 9 10"  xmlns="http://www.w3.org/2000/svg">
<path d="M2.92743 9.68238C3.13706 9.55926 3.1507 9.40045 3.14698 9.23154C3.14202 8.99422 3.13954 8.7569 3.1476 8.51959C3.15318 8.36554 3.10853 8.30249 2.93549 8.33461C2.6688 8.38398 2.40025 8.3929 2.12922 8.34175C1.57538 8.23766 1.16108 7.97239 0.942764 7.45493C0.78027 7.07071 0.558236 6.72871 0.173087 6.50626C0.0825371 6.45392 -0.0328211 6.38255 0.00873281 6.26478C0.0583494 6.12441 0.207819 6.14047 0.32876 6.15296C0.746159 6.19638 1.03145 6.43846 1.26403 6.74953C1.37195 6.89406 1.46684 7.0487 1.60577 7.16944C1.9444 7.46267 2.66322 7.54891 3.07442 7.35323C3.1538 7.31575 3.18792 7.25925 3.20528 7.18312C3.24808 6.99279 3.31878 6.81257 3.43662 6.65317C3.53895 6.51518 3.47259 6.48069 3.33118 6.46165C2.88525 6.40098 2.45173 6.29452 2.04859 6.09467C1.14123 5.64502 0.765386 4.87835 0.640104 3.95228C0.532808 3.16182 0.646306 2.42905 1.19457 1.7968C1.26217 1.71888 1.25969 1.6374 1.23116 1.5464C1.09906 1.12767 1.13441 0.710733 1.25349 0.296172C1.33722 0.00473055 1.40296 -0.0357142 1.71926 0.0231689C2.15837 0.105248 2.55778 0.284277 2.92743 0.519214C3.0893 0.622111 3.23505 0.645902 3.42483 0.602484C4.34212 0.392527 5.26375 0.393716 6.18104 0.602484C6.36028 0.643523 6.50044 0.629249 6.6586 0.530515C7.03568 0.294388 7.43882 0.104654 7.88661 0.022574C8.19981 -0.0351196 8.26617 0.0065152 8.3499 0.299741C8.46588 0.707165 8.50371 1.11756 8.37533 1.52856C8.34122 1.63859 8.35114 1.72543 8.43115 1.81464C9.35029 2.83172 9.0526 4.76237 8.26865 5.579C7.79109 6.07683 7.1653 6.29809 6.493 6.42537C6.36462 6.44976 6.17545 6.42894 6.1215 6.5021C6.04707 6.60262 6.21763 6.70849 6.27035 6.81792C6.3888 7.06535 6.45145 7.3223 6.45269 7.59233C6.45517 8.14131 6.45269 8.69029 6.45517 9.23868C6.45517 9.31957 6.44152 9.4177 6.48184 9.47778C6.60526 9.66097 6.51285 9.71152 6.34229 9.76208C5.27677 10.0773 4.21188 10.0797 3.14636 9.76684C3.08868 9.74959 3.03348 9.72342 2.92743 9.68238Z" />
</symbol>


<symbol id="icon_instagram"   viewBox="0 0 10 10"  xmlns="http://www.w3.org/2000/svg">
<path d="M7.62982 1.83976C7.30598 1.83976 7.04076 2.10218 7.04076 2.42881C7.04076 2.75545 7.30319 3.01787 7.62982 3.01787C7.95645 3.01787 8.21887 2.75545 8.21887 2.42881C8.21887 2.10218 7.95645 1.83976 7.62982 1.83976ZM5.01675 2.59352C3.65438 2.59352 2.54607 3.70185 2.54607 5.06421C2.54607 6.42658 3.65438 7.53489 5.01675 7.53489C6.37912 7.53489 7.48744 6.42658 7.48744 5.06421C7.48744 3.70185 6.37912 2.59352 5.01675 2.59352ZM5.01675 6.64712C4.14294 6.64712 3.43384 5.93803 3.43384 5.06421C3.43384 4.1904 4.14294 3.4813 5.01675 3.4813C5.89056 3.4813 6.59967 4.1904 6.59967 5.06421C6.59967 5.93803 5.89056 6.64712 5.01675 6.64712ZM10 3.01228C10 1.3484 8.65159 0 6.98771 0H3.01229C1.34841 0 0 1.3484 0 3.01228V6.98772C0 8.6516 1.34841 10 3.01229 10H6.98771C8.65159 10 10 8.6516 10 6.98772V3.01228ZM9.05639 6.98772C9.05639 8.12954 8.12953 9.05639 6.98771 9.05639H3.01229C1.87047 9.05639 0.943608 8.12954 0.943608 6.98772V3.01228C0.943608 1.87046 1.87047 0.943608 3.01229 0.943608H6.98771C8.12953 0.943608 9.05639 1.87046 9.05639 3.01228V6.98772Z" />
</symbol>




<symbol id="icon_linkedin"  viewBox="0 0 10 10"  xmlns="http://www.w3.org/2000/svg">
<path d="M10 6.07749V9.83026C10 9.92251 9.92953 10 9.83792 10H7.98802C7.89993 10 7.82594 9.9262 7.82594 9.83026V6.33948C7.82594 5.42067 7.51234 4.79336 6.72658 4.79336C6.12756 4.79336 5.77168 5.21402 5.61311 5.62362C5.55674 5.77122 5.54264 5.97417 5.54264 6.17712V9.83026C5.54264 9.92251 5.47217 10 5.38056 10H3.53066C3.44257 10 3.36858 9.9262 3.36858 9.83026C3.3721 8.90037 3.38971 4.39114 3.3721 3.32841C3.3721 3.23616 3.44257 3.15867 3.53066 3.15867H5.37703C5.46512 3.15867 5.53911 3.23247 5.53911 3.32841V4.12915C5.53911 4.12915 5.52855 4.14391 5.52502 4.15129H5.53911V4.12915C5.82805 3.66421 6.3425 3 7.49472 3C8.92178 3 9.99296 3.97786 9.99296 6.07749H10ZM0.162094 10H2.01199C2.10008 10 2.17407 9.9262 2.17407 9.83026V3.32841C2.17407 3.23616 2.1036 3.15867 2.01199 3.15867H0.162094C0.0740035 3.15867 0 3.23247 0 3.32841V9.83026C0 9.92251 0.0704799 10 0.162094 10Z" />
<path d="M1 2C1.55229 2 2 1.55228 2 1C2 0.447716 1.55229 0 1 0C0.44772 0 0 0.447716 0 1C0 1.55228 0.44772 2 1 2Z" />
</symbol>



<symbol id="icon_medium"  viewBox="0 0 10 6"  xmlns="http://www.w3.org/2000/svg">
<path d="M10 3.00885C10 4.40743 9.77956 5.54549 9.50544 5.54549C9.23131 5.54549 9.01087 4.40743 9.01087 3.00885C9.01087 1.61027 9.23131 0.472212 9.50544 0.472212C9.77956 0.472212 10 1.61027 10 3.00885ZM8.73674 3.00885C8.73674 4.57062 8.10912 5.84106 7.33209 5.84106C6.55506 5.84106 5.9231 4.57062 5.9231 3.00885C5.9231 1.44708 6.55473 0.176637 7.33209 0.176637C8.10945 0.176637 8.73674 1.44708 8.73674 3.00885ZM5.65264 3.00885C5.64797 4.66195 4.38438 6 2.82632 6C1.26559 6 0 4.65699 0 3C0 1.34301 1.26526 0 2.82632 0C3.61035 0 4.32002 0.338761 4.83192 0.886372L4.83225 0.886726C5.33949 1.42867 5.65264 2.17558 5.65264 3C5.65264 3.00319 5.65264 3.00602 5.65264 3.00885Z"/>
</symbol>


<symbol id="icon_twitter"  viewBox="0 0 10 9"  xmlns="http://www.w3.org/2000/svg">
<path d="M9.9528 0.987677C9.63534 1.13226 9.28644 1.21713 8.94384 1.27685C9.10728 1.24856 9.34616 0.956246 9.4436 0.836807C9.59133 0.654504 9.71077 0.447057 9.77992 0.223893C9.78935 0.205034 9.79564 0.183033 9.77992 0.17046C9.75792 0.161031 9.74535 0.167315 9.72649 0.173602C9.34303 0.377907 8.94699 0.52878 8.52581 0.632504C8.49123 0.641933 8.46608 0.632502 8.44408 0.6105C8.40951 0.569639 8.37494 0.535065 8.34036 0.503634C8.16434 0.352762 7.97261 0.233321 7.75888 0.148456C7.47914 0.0353025 7.17111 -0.0149852 6.86622 0.00387373C6.57077 0.0227326 6.2816 0.107596 6.02071 0.242751C5.75983 0.38105 5.52409 0.56964 5.33865 0.799091C5.14691 1.03797 5.00548 1.31771 4.93004 1.61631C4.86089 1.90233 4.86403 2.18836 4.90804 2.47753C4.91432 2.52468 4.90803 2.53097 4.86717 2.52468C3.22016 2.27952 1.85289 1.6886 0.743361 0.425055C0.696214 0.371621 0.667925 0.371619 0.630208 0.428196C0.146162 1.15426 0.381905 2.32352 0.98539 2.89871C1.06711 2.97415 1.14883 3.05273 1.23998 3.12188C1.20855 3.12817 0.803082 3.08416 0.444763 2.89871C0.397616 2.86728 0.372473 2.88614 0.36933 2.93958C0.366187 3.01815 0.369328 3.09045 0.381901 3.17531C0.476195 3.91395 0.985384 4.59602 1.68631 4.86004C1.76803 4.89462 1.86232 4.92605 1.95033 4.94176C1.79003 4.97634 1.62659 5.00148 1.17083 4.96691C1.11426 4.95748 1.09225 4.98577 1.11425 5.0392C1.45685 5.97586 2.19864 6.25246 2.75498 6.41276C2.83041 6.42533 2.90271 6.42533 2.97815 6.44419C2.975 6.45047 2.96871 6.45048 2.96557 6.45676C2.78013 6.7365 2.14207 6.94709 1.84661 7.05082C1.30599 7.23941 0.718218 7.32427 0.146164 7.2677C0.0550131 7.25512 0.0361565 7.25512 0.0110113 7.2677C-0.0141339 7.28341 0.00786391 7.30541 0.0361523 7.32742C0.152449 7.40285 0.268747 7.472 0.39133 7.53801C0.752792 7.72974 1.13311 7.88375 1.52915 7.99376C3.5722 8.55639 5.87299 8.14464 7.40684 6.62021C8.61067 5.42267 9.03185 3.77251 9.03185 2.12235C9.03185 2.05635 9.10729 2.02178 9.15444 1.9872C9.46875 1.75146 9.71706 1.46858 9.94965 1.15427C10.0031 1.08512 9.99994 1.02225 9.99994 0.993964V0.984535C9.99994 0.95939 10.0031 0.965676 9.96223 0.984535L9.9528 0.987677Z" />
</symbol>


<symbol id="icon_youtube"  viewBox="0 0 10 7"  xmlns="http://www.w3.org/2000/svg">
<path d="M10 2.17702C10 0.975154 9.02485 0 7.82299 0H2.17701C0.975149 0 0 0.975154 0 2.17702V4.82298C0 6.02484 0.975149 7 2.17701 7H7.82299C9.02485 7 10 6.02484 10 4.82298V2.17702ZM6.43789 3.63354L4.18633 4.86957C4.08695 4.92236 4 4.85093 4 4.73913V2.20497C4 2.09317 4.09006 2.02174 4.18944 2.07764L6.45653 3.37888C6.55591 3.43478 6.54037 3.58074 6.43789 3.63665V3.63354Z" />
</symbol>








</defs>
</svg>
